<?xml version="1.0" encoding="UTF-8" standalone="no"?>
<!DOCTYPE svg PUBLIC "-//W3C//DTD SVG 1.1//EN" "http://www.w3.org/Graphics/SVG/1.1/DTD/svg11.dtd">
<svg width="100%" height="100%" viewBox="0 0 320 320" version="1.1" xmlns="http://www.w3.org/2000/svg" xmlns:xlink="http://www.w3.org/1999/xlink" xml:space="preserve" xmlns:serif="http://www.serif.com/" style="fill-rule:evenodd;clip-rule:evenodd;stroke-linejoin:round;stroke-miterlimit:2;">
    <g transform="matrix(1,0,0,1,-240,-240)">
        <path d="M283,528L283,384L316,384L316,528L283,528ZM484,528L484,384L517,384L517,528L484,528ZM317,304C316,304 316,302 316,299L316,294L306,294L306,284L317,283L328,283L328,272L472,272L472,277L473,283L484,283L495,284L495,294L484,294L484,305L462,305L462,295L339,295L338,300L338,305L328,305C322,305 317,305 317,304Z" style="fill:rgb(92,76,67);fill-rule:nonzero;"/>
    </g>
    <g transform="matrix(1,0,0,1,-240,-240)">
        <path d="M282,529L282,420L283,447L283,501L282,529ZM517,529L517,417L518,444L518,500L517,529ZM396,505C395,505 395,503 395,500L395,495L393,495C393,494 388,494 382,494L373,494L373,484L361,483L350,483L350,472L339,472L339,461L328,461L328,417L339,417L339,412L340,407L366,406C385,406 393,406 393,407C394,408 394,410 394,413L394,417L397,417C401,417 405,417 406,416L406,406L461,406L461,417L468,417L472,418L472,461L461,461L461,472L456,472L451,473L450,478L450,483L439,483L428,484L427,489L427,494L417,494C412,494 407,494 406,495C406,495 405,498 405,501L405,506L400,506C398,506 396,506 396,505ZM517,414L517,402L518,405L518,411L517,414ZM282,400L282,397L283,398L283,400L282,400ZM517,398L517,384L511,384L506,383L517,383L518,384L518,392L517,398ZM282,388L283,384L288,383L294,383L289,384L283,384L283,388L282,393L282,388Z" style="fill:rgb(219,72,69);fill-rule:nonzero;"/>
    </g>
    <g transform="matrix(1,0,0,1,-240,-240)">
        <path d="M250,528C249,528 249,526 249,523L249,518L239,518L239,395L244,394L249,394L249,389L250,384L261,384L261,529L255,529C253,529 250,529 250,528ZM272,528C271,527 271,393 272,352L273,328L278,327L283,327L283,305L294,305L294,294L304,294L304,287L305,290L306,294L316,294L316,305L327,305L338,306L316,306L316,316L311,316L306,317L305,328L305,339L294,339L294,361L295,383L306,383L317,384L317,529L295,529C282,529 272,528 272,528ZM316,528L316,384L300,384C291,383 283,383 283,383C283,384 282,416 282,456L282,528L316,528ZM483,528L483,455L484,384L495,383L506,383L506,339L496,339L495,328L495,317L489,316L484,316L484,306L473,306L463,305L484,305L484,300L485,295L490,294L495,294L495,290L496,286L496,294L506,294L506,299L507,305L517,305L517,316L518,327L523,327L528,328L528,333C528,335 529,380 529,433L529,528L521,528C517,529 507,529 499,529L484,529L483,528ZM518,456C518,416 517,384 517,384C517,383 509,383 500,384L484,384L484,528L518,528L518,456ZM539,528L539,455L540,384L551,384L551,389L552,394L557,394L562,395L562,518L551,518L551,529L540,529L539,528ZM395,506C394,506 394,503 394,501L394,496L384,496C377,496 373,496 372,495C372,494 371,491 371,489L371,484L350,484L349,478L349,473L339,473L338,467L338,462L328,462L328,417L333,416L338,416L338,411L339,406L395,406L395,416L405,416L405,411L406,406L434,405L462,405L462,416L467,416L473,417L473,462L462,462L462,473L451,473L451,484L429,484L429,489C429,491 428,494 428,495C427,496 423,496 416,496L406,496L406,507L400,507C398,507 395,507 395,506ZM405,501C405,498 406,495 406,495C407,494 412,494 417,494L427,494L427,489L428,484L439,483L450,483L450,478L451,473L456,472L461,472L461,461L472,461L472,418L468,417L461,417L461,406L406,406L406,416C405,417 401,417 397,417L394,417L394,413C394,410 394,408 393,407C393,406 385,406 366,406L340,407L339,412L339,417L328,417L328,461L339,461L339,472L350,472L350,483L361,483L373,484L373,494L382,494C388,494 393,494 393,495L395,495L395,500C395,503 395,505 396,505C396,506 398,506 400,506L405,506L405,501ZM338,300C338,297 338,295 339,295L340,294L339,298L339,304L338,306L338,300ZM461,306L461,294L461,295C462,295 462,298 462,301L461,306ZM305,284L305,282L327,282L327,271L473,271L473,282L495,282L495,284L484,283L473,283L472,277L472,272L328,272L328,283L316,283L305,284Z" style="fill:rgb(239,124,124);fill-rule:nonzero;"/>
    </g>
</svg>
