<?xml version="1.0" standalone="no"?>

<!DOCTYPE svg PUBLIC "-//W3C//DTD SVG 20010904//EN"

 "http://www.w3.org/TR/2001/REC-SVG-20010904/DTD/svg10.dtd">

<svg version="1.0" xmlns="http://www.w3.org/2000/svg"

 width="800.000000pt" height="800.000000pt" viewBox="0 0 800.000000 800.000000"

 preserveAspectRatio="xMidYMid meet">

<path fill="#5c4c43" stroke="none" d="
M283 456

L283 384

L300 384

L316 384

L316 456

L316 528

L300 528

L283 528

L283 456

Z

M484 456

L484 384

L501 384

L517 384

L517 456

L517 528

L501 528

L484 528

L484 456

Z

M317 304

C316 304 316 302 316 299

L316 294

L311 294

L306 294

L306 289

L306 284

L317 283

L328 283

L328 277

L328 272

L400 272

L472 272

L472 277

L473 283

L484 283

L495 284

L495 289

L495 294

L489 294

L484 294

L484 299

L484 305

L473 305

L462 305

L462 300

L462 295

L400 295

L339 295

L338 300

L338 305

L328 305

C322 305 317 305 317 304

Z

"/>

<path fill="#db4845" stroke="none" d="
M282 474

L282 420

L283 447

C283 462 283 486 283 501

L282 529

L282 474

Z

M517 473

L517 417

L518 444

C518 459 518 485 518 500

L517 529

L517 473

Z

M396 505

C395 505 395 503 395 500

L395 495

L393 495

C393 494 388 494 382 494

L373 494

L373 489

L373 484

L361 483

L350 483

L350 477

L350 472

L345 472

L339 472

L339 467

L339 461

L334 461

L328 461

L328 439

L328 417

L330 417

C331 417 334 417 336 417

L339 417

L339 412

L340 407

L366 406

C385 406 393 406 393 407

C394 408 394 410 394 413

L394 417

L397 417

C401 417 405 417 406 416

C406 416 406 414 406 411

L406 406

L433 406

L461 406

L461 412

L461 417

L462 417

C463 417 465 417 468 417

L472 418

L472 439

L472 461

L467 461

L461 461

L461 466

L461 472

L456 472

L451 473

L450 478

L450 483

L439 483

L428 484

L427 489

L427 494

L417 494

C412 494 407 494 406 495

C406 495 405 498 405 501

L405 506

L400 506

C398 506 396 506 396 505

Z

M517 408

L517 402

L518 405

C518 407 518 409 518 411

L517 414

L517 408

Z

M282 398

L282 397

L283 398

L283 399

L283 400

L282 400

L282 398

Z

M517 391

L517 384

L511 384

L506 383

L511 383

L517 383

L518 384

C518 385 518 388 518 392

L517 398

L517 391

Z

M282 388

L283 384

L288 383

L294 383

L289 384

L283 384

L283 388

L282 393

L282 388

Z

"/>

<path fill="#ef7c7c" stroke="none" d="
M250 528

C249 528 249 526 249 523

L249 518

L244 518

L239 518

L239 456

L239 395

L244 394

L249 394

L249 389

L250 384

L255 384

L261 384

L261 456

L261 529

L255 529

C253 529 250 529 250 528

Z

M272 528

C271 527 271 393 272 352

L273 328

L278 327

L283 327

L283 316

L283 305

L288 305

L294 305

L294 299

L294 294

L299 294

L304 294

L304 290

L304 287

L305 290

L306 294

L311 294

L316 294

L316 300

L316 305

L327 305

L338 306

L327 306

L316 306

L316 311

L316 316

L311 316

L306 317

L305 328

L305 339

L299 339

L294 339

L294 361

L295 383

L306 383

L317 384

L317 456

L317 529

L295 529

C282 529 272 528 272 528

Z

M316 456

L316 384

L300 384

C291 383 283 383 283 383

C283 384 282 416 282 456

L282 528

L299 528

L316 528

L316 456

Z

M483 528

C483 527 483 494 483 455

L484 384

L495 383

L506 383

L506 361

L506 339

L501 339

L496 339

L495 328

L495 317

L489 316

L484 316

L484 311

L484 306

L473 306

L463 305

L473 305

L484 305

L484 300

L485 295

L490 294

L495 294

L495 290

L496 286

L496 290

L496 294

L501 294

L506 294

L506 299

L507 305

L512 305

L517 305

L517 316

L518 327

L523 327

L528 328

L528 333

C528 335 529 380 529 433

L529 528

L521 528

C517 529 507 529 499 529

L484 529

L483 528

Z

M518 456

C518 416 517 384 517 384

C517 383 509 383 500 384

L484 384

L484 456

L484 528

L501 528

L518 528

L518 456

Z

M539 528

C539 527 539 494 539 455

L540 384

L545 384

L551 384

L551 389

L552 394

L557 394

L562 395

L562 456

L562 518

L556 518

L551 518

L551 523

L551 529

L545 529

L540 529

L539 528

Z

M395 506

C394 506 394 503 394 501

L394 496

L384 496

C377 496 373 496 372 495

C372 494 371 491 371 489

L371 484

L360 484

L350 484

L349 478

L349 473

L344 473

L339 473

L338 467

L338 462

L333 462

L328 462

L328 439

L328 417

L333 416

L338 416

L338 411

L339 406

L367 406

L395 406

L395 411

L395 416

L400 416

L405 416

L405 411

L406 406

L434 405

L462 405

L462 410

L462 416

L467 416

L473 417

L473 439

L473 462

L467 462

L462 462

L462 467

L462 473

L456 473

L451 473

L451 478

L451 484

L440 484

L429 484

L429 489

C429 491 428 494 428 495

C427 496 423 496 416 496

L406 496

L406 501

L406 507

L400 507

C398 507 395 507 395 506

Z

M405 501

C405 498 406 495 406 495

C407 494 412 494 417 494

L427 494

L427 489

L428 484

L439 483

L450 483

L450 478

L451 473

L456 472

L461 472

L461 466

L461 461

L467 461

L472 461

L472 439

L472 418

L468 417

C465 417 463 417 462 417

L461 417

L461 412

L461 406

L433 406

L406 406

L406 411

C406 414 406 416 406 416

C405 417 401 417 397 417

L394 417

L394 413

C394 410 394 408 393 407

C393 406 385 406 366 406

L340 407

L339 412

L339 417

L336 417

C334 417 331 417 330 417

L328 417

L328 439

L328 461

L334 461

L339 461

L339 467

L339 472

L345 472

L350 472

L350 477

L350 483

L361 483

L373 484

L373 489

L373 494

L382 494

C388 494 393 494 393 495

L395 495

L395 500

C395 503 395 505 396 505

C396 506 398 506 400 506

L405 506

L405 501

Z

M338 300

C338 297 338 295 339 295

L340 294

L339 298

C339 301 339 303 339 304

L338 306

L338 300

Z

M461 300

L461 294

L461 295

C462 295 462 298 462 301

L461 306

L461 300

Z

M305 283

L305 282

L316 282

L327 282

L327 277

L327 271

L400 271

L473 271

L473 277

L473 282

L484 282

L495 282

L495 283

L495 284

L484 283

L473 283

L472 277

L472 272

L400 272

L328 272

L328 277

L328 283

L316 283

L305 284

L305 283

Z

"/>

<path fill="#f9dee0" stroke="none" d="
M0 400

L0 0

L400 0

L800 0

L800 400

L800 800

L400 800

L0 800

L0 400

Z

M261 456

L261 384

L255 384

L250 384

L249 389

L249 394

L244 394

L239 395

L239 456

L239 518

L244 518

L249 518

L249 523

C249 526 249 528 250 528

C250 529 253 529 255 529

L261 529

L261 456

Z

M317 456

L317 384

L306 383

L295 383

L294 361

L294 339

L299 339

L305 339

L305 328

L306 317

L311 316

L316 316

L316 311

L316 306

L326 306

C332 306 337 306 338 305

C338 305 339 302 339 299

L340 295

L400 295

L461 295

L461 299

C461 302 462 305 462 305

C463 306 468 306 474 306

L484 306

L484 311

L484 316

L489 316

L495 317

L495 328

L496 339

L501 339

L506 339

L506 361

L506 383

L495 383

L484 384

L484 456

L484 529

L496 529

C503 529 513 529 519 528

L529 528

L529 433

C529 380 528 335 528 333

L528 328

L523 327

L518 327

L517 316

L517 305

L512 305

L507 305

L506 299

L506 294

L501 294

L496 294

L496 291

C496 290 496 287 495 285

L495 282

L484 282

L473 282

L473 277

L473 271

L400 271

L327 271

L327 277

L327 282

L316 282

L305 282

L304 288

L304 294

L299 294

L294 294

L294 299

L294 305

L288 305

L283 305

L283 316

L283 327

L278 327

L273 328

L272 352

C271 393 271 527 272 528

C272 528 282 529 295 529

L317 529

L317 456

Z

M551 523

L551 518

L556 518

L562 518

L562 456

L562 395

L557 394

L552 394

L551 389

L551 384

L545 384

L540 384

L539 455

C539 494 539 527 539 528

L540 529

L545 529

L551 529

L551 523

Z

M406 501

L406 496

L416 496

C423 496 427 496 428 495

C428 494 429 491 429 489

L429 484

L440 484

L451 484

L451 478

L451 473

L456 473

L462 473

L462 467

L462 462

L467 462

L473 462

L473 439

L473 417

L467 416

L462 416

L462 410

L462 405

L434 405

L406 406

L405 411

L405 416

L400 416

L395 416

L395 411

L395 406

L367 406

L339 406

L338 411

L338 416

L333 416

L328 417

L328 439

L328 462

L333 462

L338 462

L338 467

L339 473

L344 473

L349 473

L349 478

L350 484

L360 484

L371 484

L371 489

C371 491 372 494 372 495

C373 496 377 496 384 496

L394 496

L394 501

C394 503 394 506 395 506

C395 507 398 507 400 507

L406 507

L406 501

Z

"/>

</svg>

